<?xml version="1.0" encoding="UTF-8"?>
<svg xmlns="http://www.w3.org/2000/svg" xmlns:xlink="http://www.w3.org/1999/xlink" viewBox="0 0 96 96" width="96px" height="96px">
<defs>
<linearGradient id="linear0" gradientUnits="userSpaceOnUse" x1="86" y1="24.303061" x2="86" y2="147.842056" gradientTransform="matrix(0.55814,0,0,0.55814,0,0)">
<stop offset="0" style="stop-color:rgb(85.09804%,87.843138%,12.941177%);stop-opacity:1;"/>
<stop offset="1" style="stop-color:rgb(98.431373%,52.941179%,16.862746%);stop-opacity:1;"/>
</linearGradient>
<linearGradient id="linear1" gradientUnits="userSpaceOnUse" x1="122.490883" y1="95.892693" x2="122.490883" y2="134.888306" gradientTransform="matrix(0.55814,0,0,0.55814,0,0)">
<stop offset="0" style="stop-color:rgb(91.764706%,93.333334%,51.372552%);stop-opacity:1;"/>
<stop offset="1" style="stop-color:rgb(99.215686%,77.254903%,60.000002%);stop-opacity:1;"/>
</linearGradient>
<linearGradient id="linear2" gradientUnits="userSpaceOnUse" x1="91.59269" y1="95.892693" x2="91.59269" y2="134.888306" gradientTransform="matrix(0.55814,0,0,0.55814,0,0)">
<stop offset="0" style="stop-color:rgb(91.764706%,93.333334%,51.372552%);stop-opacity:1;"/>
<stop offset="1" style="stop-color:rgb(99.215686%,77.254903%,60.000002%);stop-opacity:1;"/>
</linearGradient>
</defs>
<g id="surface14766836">
<path style=" stroke:none;fill-rule:nonzero;fill:url(#linear0);" d="M 76.5 12 L 19.5 12 C 15.300781 12 12 15.300781 12 19.5 L 12 76.5 C 12 80.699219 15.300781 84 19.5 84 L 76.5 84 C 80.699219 84 84 80.699219 84 76.5 L 84 19.5 C 84 15.300781 80.699219 12 76.5 12 Z M 81 76.5 C 81 79.050781 79.050781 81 76.5 81 L 19.5 81 C 16.949219 81 15 79.050781 15 76.5 L 15 19.5 C 15 16.949219 16.949219 15 19.5 15 L 76.5 15 C 79.050781 15 81 16.949219 81 19.5 Z M 81 76.5 "/>
<path style=" stroke:none;fill-rule:nonzero;fill:url(#linear1);" d="M 70.050781 62.25 L 68.851562 61.800781 C 66.75 60.898438 65.851562 60.300781 65.851562 58.800781 C 65.851562 57.601562 66.75 56.699219 68.101562 56.699219 C 69.300781 56.699219 70.050781 57.148438 70.800781 58.199219 C 70.949219 58.5 71.398438 58.648438 71.851562 58.351562 L 74.398438 56.699219 C 74.699219 56.550781 74.851562 55.949219 74.699219 55.648438 C 73.199219 53.398438 71.101562 52.5 68.25 52.5 C 63.898438 52.5 61.199219 55.199219 61.199219 58.800781 C 61.199219 62.699219 63.449219 64.648438 67.050781 66 L 68.25 66.449219 C 70.5 67.351562 71.550781 67.949219 71.550781 69.601562 C 71.550781 70.949219 70.5 72 68.550781 72 C 66.449219 72 65.398438 70.800781 64.351562 69.300781 C 64.050781 69 63.601562 68.851562 63.300781 69.148438 L 60.75 70.800781 C 60.449219 70.949219 60.300781 71.398438 60.449219 71.851562 C 61.949219 74.398438 64.351562 76.351562 68.550781 76.351562 C 73.199219 76.351562 76.5 73.949219 76.5 69.601562 C 76.5 65.699219 74.25 63.898438 70.050781 62.25 Z M 70.050781 62.25 "/>
<path style=" stroke:none;fill-rule:nonzero;fill:url(#linear2);" d="M 57.75 52.5 L 54.300781 52.5 C 53.851562 52.5 53.550781 52.800781 53.550781 53.25 L 53.550781 68.398438 C 53.550781 70.800781 52.648438 71.398438 51 71.398438 C 49.648438 71.398438 48.601562 70.648438 47.851562 69.601562 C 47.699219 69.300781 47.25 69.148438 46.800781 69.449219 L 44.101562 71.101562 C 43.800781 71.25 43.648438 71.851562 43.800781 72.148438 C 45.148438 74.398438 47.699219 76.5 51.300781 76.5 C 55.648438 76.5 58.5 74.25 58.5 69.148438 L 58.5 53.25 C 58.5 52.800781 58.199219 52.5 57.75 52.5 Z M 57.75 52.5 "/>
</g>
</svg>
