<?xml version="1.0" encoding="UTF-8"?>
<svg xmlns="http://www.w3.org/2000/svg" xmlns:xlink="http://www.w3.org/1999/xlink" viewBox="0 0 64 64" width="64px" height="64px">
<defs>
<radialGradient id="radial0" gradientUnits="userSpaceOnUse" cx="80.291748" cy="68.53125" fx="80.291748" fy="68.53125" r="91.606133" gradientTransform="matrix(0.372093,0,0,0.372093,0,0)">
<stop offset="0" style="stop-color:rgb(93.725491%,86.274511%,69.411767%);stop-opacity:1;"/>
<stop offset="0" style="stop-color:rgb(94.901961%,87.843138%,73.333335%);stop-opacity:1;"/>
<stop offset="0.011" style="stop-color:rgb(94.901961%,87.843138%,73.725492%);stop-opacity:1;"/>
<stop offset="0.362" style="stop-color:rgb(97.647059%,92.941177%,82.352942%);stop-opacity:1;"/>
<stop offset="0.699" style="stop-color:rgb(99.607843%,95.686275%,87.450981%);stop-opacity:1;"/>
<stop offset="1" style="stop-color:rgb(100%,96.862745%,89.411765%);stop-opacity:1;"/>
</radialGradient>
<linearGradient id="linear0" gradientUnits="userSpaceOnUse" x1="91.375" y1="155.875" x2="91.375" y2="25.507059" gradientTransform="matrix(0.372093,0,0,0.372093,0,0)">
<stop offset="0" style="stop-color:rgb(29.411766%,79.215688%,93.333334%);stop-opacity:1;"/>
<stop offset="1" style="stop-color:rgb(39.607844%,81.176472%,95.294118%);stop-opacity:1;"/>
</linearGradient>
<linearGradient id="linear1" gradientUnits="userSpaceOnUse" x1="150.5" y1="57.797379" x2="150.5" y2="26.64119" gradientTransform="matrix(0.372093,0,0,0.372093,0,0)">
<stop offset="0" style="stop-color:rgb(25.490198%,83.137256%,94.509804%);stop-opacity:1;"/>
<stop offset="0.25" style="stop-color:rgb(23.529412%,80.392158%,93.333334%);stop-opacity:1;"/>
<stop offset="0.601" style="stop-color:rgb(18.039216%,73.333335%,90.588236%);stop-opacity:1;"/>
<stop offset="1" style="stop-color:rgb(9.411765%,61.960787%,85.882354%);stop-opacity:1;"/>
</linearGradient>
<linearGradient id="linear2" gradientUnits="userSpaceOnUse" x1="67.1875" y1="118.502632" x2="67.1875" y2="153.276184" gradientTransform="matrix(0.372093,0,0,0.372093,0,0)">
<stop offset="0" style="stop-color:rgb(18.82353%,76.862746%,91.764706%);stop-opacity:1;"/>
<stop offset="0.412" style="stop-color:rgb(15.686275%,72.549021%,89.803922%);stop-opacity:1;"/>
<stop offset="1" style="stop-color:rgb(9.411765%,63.137257%,85.882354%);stop-opacity:1;"/>
</linearGradient>
<linearGradient id="linear3" gradientUnits="userSpaceOnUse" x1="92.466133" y1="119.854439" x2="92.466133" y2="153.90506" gradientTransform="matrix(0.372093,0,0,0.372093,0,0)">
<stop offset="0" style="stop-color:rgb(15.686275%,70.588237%,89.019608%);stop-opacity:1;"/>
<stop offset="0.497" style="stop-color:rgb(13.333334%,67.843139%,87.843138%);stop-opacity:1;"/>
<stop offset="1" style="stop-color:rgb(9.411765%,63.137257%,85.882354%);stop-opacity:1;"/>
</linearGradient>
</defs>
<g id="surface28119943">
<path style=" stroke:none;fill-rule:nonzero;fill:url(#radial0);" d="M 60 42 L 55.105469 42 C 54.109375 42 53.1875 42.679688 53.027344 43.664062 C 52.824219 44.917969 53.785156 46 55 46 L 55.828125 46 C 57.453125 46 58.910156 47.214844 58.996094 48.839844 C 59.085938 50.570312 57.710938 52 56 52 L 26 52 L 26 51 L 16.148438 51 C 14.675781 51 13.308594 50.003906 13.050781 48.554688 C 12.710938 46.648438 14.167969 44.992188 16.011719 45 C 16.75 45.003906 17.464844 44.769531 18 44.3125 L 18 41 L 5.699219 41 C 3.816406 41 2.125 39.605469 2.007812 37.726562 C 1.882812 35.742188 3.410156 34.101562 5.347656 34.015625 C 6.214844 34.007812 7.894531 34.003906 9.496094 34.003906 C 11.433594 34 13 32.429688 13 30.492188 L 13 30.484375 C 13 28.546875 11.429688 26.972656 9.488281 26.976562 C 6.773438 26.980469 6.5 27 6.5 27 C 5.035156 27 3.863281 25.738281 4.011719 24.242188 C 4.144531 22.941406 5.335938 22 6.644531 22 L 7.359375 22 C 8.664062 22 9.855469 21.058594 9.988281 19.757812 C 10.136719 18.261719 8.964844 17 7.5 17 L 3.171875 17 C 1.546875 17 0.0898438 15.785156 0.00390625 14.160156 C -0.0859375 12.429688 1.289062 11 3 11 L 7.894531 11 C 8.890625 11 9.8125 10.320312 9.972656 9.335938 C 10.175781 8.082031 9.214844 7 8 7 L 7.171875 7 C 5.546875 7 4.089844 5.785156 4.003906 4.160156 C 3.914062 2.429688 5.289062 1 7 1 L 42.851562 1 C 44.324219 1 45.691406 1.996094 45.949219 3.445312 C 46.289062 5.351562 44.832031 7.007812 42.988281 7 C 42.105469 6.996094 41.257812 7.339844 40.714844 8 L 41 8 L 41 12 L 48.300781 12 C 50.195312 12 51.894531 13.417969 51.996094 15.3125 C 52.101562 17.328125 50.496094 19 48.5 19 L 48.292969 19 C 47.652344 20.125 46.640625 21 45.5 21 L 41.089844 21 C 41.054688 21.035156 41.035156 21.054688 41 21.089844 L 41 25.007812 C 41.839844 25.066406 42.621094 25.429688 43.175781 26 L 55.355469 26 C 56.664062 26 57.855469 26.941406 57.988281 28.242188 C 58.136719 29.738281 56.964844 31 55.5 31 L 54.644531 31 C 53.335938 31 52.144531 31.941406 52.011719 33.242188 C 51.863281 34.738281 53.035156 36 54.5 36 L 59.828125 36 C 61.453125 36 62.910156 37.214844 62.996094 38.839844 C 63.085938 40.570312 61.710938 42 60 42 Z M 60 42 "/>
<path style=" stroke:none;fill-rule:nonzero;fill:url(#linear0);" d="M 56 9 L 22 9 C 16.476562 9 12 13.476562 12 19 L 12 58 L 44 58 C 47.3125 58 50 55.3125 50 52 L 50 15 C 50 11.6875 52.6875 9 56 9 Z M 56 9 "/>
<path style=" stroke:none;fill-rule:nonzero;fill:url(#linear1);" d="M 56 9 C 52.6875 9 50 11.6875 50 15 L 50 22 L 59 22 C 60.65625 22 62 20.65625 62 19 L 62 15 C 62 11.6875 59.3125 9 56 9 Z M 56 9 "/>
<path style=" stroke:none;fill-rule:nonzero;fill:url(#linear2);" d="M 44 58 L 12 58 C 8.6875 58 6 55.3125 6 52 L 6 47 C 6 45.34375 7.34375 44 9 44 L 35 44 C 36.65625 44 38 45.34375 38 47 L 38 52 C 38 55.3125 40.6875 58 44 58 Z M 44 58 "/>
<path style=" stroke:none;fill-rule:nonzero;fill:url(#linear3);" d="M 38 52 L 38 47 C 38 45.34375 36.65625 44 35 44 L 32.019531 44 C 30.804688 44 29.84375 45.082031 30.046875 46.335938 C 30.207031 47.320312 31.128906 48 32.128906 48 L 33.519531 48 C 34.347656 48 35.019531 48.671875 35.019531 49.5 C 35.019531 50.328125 34.347656 51 33.519531 51 L 28.105469 51 C 27.109375 51 26.1875 51.679688 26.027344 52.664062 C 25.824219 53.917969 26.785156 55 28 55 L 30.519531 55 C 31.347656 55 32.019531 55.671875 32.019531 56.5 C 32.019531 57.328125 31.347656 58 30.519531 58 L 42 58 C 42.40625 58 42.664062 57.957031 42.8125 57.882812 C 40.066406 57.328125 38 54.90625 38 52 Z M 38 52 "/>
<path style=" stroke:none;fill-rule:nonzero;fill:rgb(100%,100%,100%);fill-opacity:1;" d="M 33 27 L 20 27 C 18.894531 27 18 26.105469 18 25 C 18 23.894531 18.894531 23 20 23 L 33 23 C 34.105469 23 35 23.894531 35 25 C 35 26.105469 34.105469 27 33 27 Z M 42 27 L 40 27 C 38.894531 27 38 26.105469 38 25 C 38 23.894531 38.894531 23 40 23 L 42 23 C 43.105469 23 44 23.894531 44 25 C 44 26.105469 43.105469 27 42 27 Z M 22 41 L 20 41 C 18.894531 41 18 40.105469 18 39 C 18 37.894531 18.894531 37 20 37 L 22 37 C 23.105469 37 24 37.894531 24 39 C 24 40.105469 23.105469 41 22 41 Z M 42 41 L 29 41 C 27.894531 41 27 40.105469 27 39 C 27 37.894531 27.894531 37 29 37 L 42 37 C 43.105469 37 44 37.894531 44 39 C 44 40.105469 43.105469 41 42 41 Z M 26 34 L 20 34 C 18.894531 34 18 33.105469 18 32 C 18 30.894531 18.894531 30 20 30 L 26 30 C 27.105469 30 28 30.894531 28 32 C 28 33.105469 27.105469 34 26 34 Z M 42 34 L 33 34 C 31.894531 34 31 33.105469 31 32 C 31 30.894531 31.894531 30 33 30 L 42 30 C 43.105469 30 44 30.894531 44 32 C 44 33.105469 43.105469 34 42 34 Z M 42 34 "/>
</g>
</svg>
