<?xml version="1.0" encoding="UTF-8"?>
<svg xmlns="http://www.w3.org/2000/svg" xmlns:xlink="http://www.w3.org/1999/xlink" viewBox="0 0 96 96" width="96px" height="96px">
<defs>
<linearGradient id="linear0" gradientUnits="userSpaceOnUse" x1="83.309807" y1="43" x2="83.309807" y2="148.731628" gradientTransform="matrix(0.55814,0,0,0.55814,0,0)">
<stop offset="0" style="stop-color:rgb(98.823529%,95.294118%,99.215686%);stop-opacity:1;"/>
<stop offset="1" style="stop-color:rgb(43.137255%,85.490197%,98.823529%);stop-opacity:1;"/>
</linearGradient>
<linearGradient id="linear1" gradientUnits="userSpaceOnUse" x1="86" y1="13.4375" x2="86" y2="159.011307" gradientTransform="matrix(0.55814,0,0,0.55814,0,0)">
<stop offset="0" style="stop-color:rgb(87.843138%,56.470591%,94.117647%);stop-opacity:1;"/>
<stop offset="1" style="stop-color:rgb(1.960784%,74.117649%,96.078432%);stop-opacity:1;"/>
</linearGradient>
</defs>
<g id="surface14487772">
<path style=" stroke:none;fill-rule:nonzero;fill:url(#linear0);" d="M 37.511719 84.011719 C 37.507812 83.457031 37.503906 81.066406 37.5 78.828125 L 37.492188 76.503906 C 27.402344 77.878906 24.957031 70.835938 24.929688 70.757812 C 23.527344 67.207031 21.613281 66.191406 21.53125 66.148438 L 21.34375 66.042969 C 20.652344 65.566406 18.808594 64.304688 19.332031 62.648438 C 19.804688 61.152344 21.636719 60.996094 22.46875 61.023438 C 27.078125 61.347656 29.414062 65.492188 29.507812 65.667969 C 31.863281 69.699219 35.457031 69.285156 37.773438 68.433594 C 37.988281 67.402344 38.324219 66.453125 38.761719 65.617188 C 31.328125 64.296875 22.90625 60.34375 22.90625 45.960938 C 22.90625 42.011719 24.136719 38.519531 26.566406 35.566406 C 26.023438 33.757812 25.40625 30.066406 27.234375 25.417969 L 27.496094 24.757812 L 28.175781 24.539062 C 28.796875 24.335938 32.207031 23.605469 39.214844 28.191406 C 42.105469 27.449219 45.167969 27.066406 48.324219 27.050781 C 51.496094 27.066406 54.5625 27.449219 57.460938 28.191406 C 64.460938 23.601562 67.859375 24.34375 68.484375 24.539062 L 69.160156 24.757812 L 69.421875 25.417969 C 71.261719 30.066406 70.640625 33.757812 70.097656 35.566406 C 72.527344 38.511719 73.757812 42.003906 73.757812 45.960938 C 73.757812 60.347656 65.324219 64.289062 57.875 65.589844 C 58.71875 67.1875 59.175781 69.195312 59.175781 71.40625 C 59.175781 73.933594 59.164062 82.214844 59.152344 84.011719 L 56.152344 83.988281 C 56.164062 82.195312 56.175781 73.925781 56.175781 71.40625 C 56.175781 67.742188 54.761719 66.121094 54.152344 65.59375 L 51.554688 63.347656 L 54.96875 62.96875 C 62.773438 62.101562 70.753906 59.402344 70.753906 45.957031 C 70.753906 42.464844 69.589844 39.417969 67.289062 36.90625 L 66.644531 36.199219 L 67.007812 35.320312 C 67.257812 34.71875 68.347656 31.65625 66.945312 27.382812 C 65.804688 27.453125 63.089844 27.988281 58.566406 31.054688 L 57.992188 31.441406 L 57.324219 31.257812 C 54.53125 30.480469 51.417969 30.066406 48.324219 30.050781 C 45.246094 30.066406 42.136719 30.480469 39.347656 31.257812 L 38.679688 31.441406 L 38.105469 31.054688 C 33.574219 27.988281 30.855469 27.449219 29.714844 27.382812 C 28.3125 31.65625 29.40625 34.71875 29.652344 35.320312 L 30.015625 36.199219 L 29.371094 36.90625 C 27.070312 39.425781 25.902344 42.472656 25.902344 45.957031 C 25.902344 59.394531 33.867188 62.113281 41.65625 63 L 45.035156 63.382812 L 42.472656 65.617188 C 41.914062 66.105469 40.929688 67.285156 40.59375 69.710938 L 40.480469 70.53125 L 39.722656 70.875 C 37.738281 71.761719 30.964844 74.117188 26.898438 67.144531 C 26.878906 67.109375 26.082031 65.726562 24.644531 64.808594 C 25.617188 65.769531 26.796875 67.320312 27.75 69.742188 C 27.847656 70.027344 29.785156 75.175781 38.667969 73.25 L 40.476562 72.855469 L 40.496094 78.824219 C 40.5 81.054688 40.503906 83.4375 40.507812 83.988281 Z M 37.511719 84.011719 "/>
<path style=" stroke:none;fill-rule:nonzero;fill:url(#linear1);" d="M 48 87 C 26.496094 87 9 69.503906 9 48 C 9 26.496094 26.496094 9 48 9 C 69.503906 9 87 26.496094 87 48 C 87 69.503906 69.503906 87 48 87 Z M 48 12 C 28.152344 12 12 28.152344 12 48 C 12 67.847656 28.152344 84 48 84 C 67.847656 84 84 67.847656 84 48 C 84 28.152344 67.847656 12 48 12 Z M 48 12 "/>
</g>
</svg>
